<?xml version="1.0" encoding="iso-8859-1"?>
<!-- Uploaded to: SVG Repo, www.svgrepo.com, Generator: SVG Repo Mixer Tools -->
<svg version="1.1" id="Layer_1" xmlns="http://www.w3.org/2000/svg" xmlns:xlink="http://www.w3.org/1999/xlink" 
	 viewBox="0 0 505 505" xml:space="preserve">
<circle style="fill:#84DBFF;" cx="252.5" cy="252.5" r="252.5"/>
<rect x="304.068" y="295.985" transform="matrix(-0.7071 0.7071 -0.7071 -0.7071 772.4481 319.9108)" style="fill:#2B3B4E;" width="31.8" height="47.9"/>
<path style="fill:#FF7058;" d="M418.7,388.8l-29.9,29.9c-0.8,0.8-2,0.8-2.8,0l-73.1-73.2c-0.8-0.8-0.8-2,0-2.8l29.9-29.9
	c0.8-0.8,2-0.8,2.8,0l73.2,73.2C419.4,386.8,419.4,388,418.7,388.8z"/>
<rect x="328.01" y="342.694" transform="matrix(-0.7071 -0.7071 0.7071 -0.7071 365.7718 882.9943)" style="fill:#FFFFFF;" width="75.499" height="46.1"/>
<circle style="fill:#324A5E;" cx="217.1" cy="217.1" r="129"/>
<circle style="fill:#FFFFFF;" cx="217.1" cy="217.1" r="102.3"/>
<path style="fill:#F9B54C;" d="M234.7,234.5c0-0.6,0.1-1.2,0-1.8c-0.1-2.6,1.1-4.8,3.1-6.2c-6.1-9.4-11.2-23.8-11.2-23.8h-19.5
	c0,0-7.7,22.3-15.4,29.4l24.7,7.9v0.4l0.6-0.2l0.6,0.2V240L234.7,234.5z"/>
<path style="fill:#E6E9EE;" d="M241.2,230.9l-24.4,2.1l-22.6-2.2L193,231c0,0-10.5,21.8-11.4,23.8c-0.8,2.1,8.3,41.1,8.3,43.8
	c0,2.7,35.1,18,35.1,18l22.7-37.4L241.2,230.9z"/>
<polygon style="fill:#F1543F;" points="220.8,246.4 212.8,246.4 207.5,233 226.1,233 "/>
<polygon style="fill:#FF7058;" points="220.8,246.4 212.8,246.4 207.5,280.8 216.8,293.1 226.1,280.8 "/>
<g>
	<path style="fill:#FFFFFF;" d="M235,221.7c0,0,13.7,11.7-6.7,24.5l-11.5-13L235,221.7z"/>
	<path style="fill:#FFFFFF;" d="M198.6,221.7c0,0-13.7,11.7,6.7,24.5l11.5-13L198.6,221.7z"/>
</g>
<g>
	<path style="fill:#4CDBC4;" d="M171.1,286.2c0,0-1.2,3.8-2.7,10.3c-0.7,2.7-1.4,5.9-2.1,9.4c-10.2-5.8-19.3-13.4-26.9-22.3
		c2.7-13.8,6.7-27.7,12.7-40.9c0,0,0,0,0.1,0.1l4.6,10.6c0,0.1,0.1,0.2,0.1,0.3L171.1,286.2z"/>
	<path style="fill:#4CDBC4;" d="M223.7,319.2c-2.2,0.1-4.4,0.2-6.6,0.2c-2.2,0-4.4-0.1-6.6-0.2c-14.5-0.9-28.1-4.9-40.3-11.2
		c-0.5-4-1.1-7.8-1.7-11.5c-3.3-19.1-8-33.7-11.6-42.8c0-0.1-0.1-0.2-0.1-0.3c-2.4-6.3-4.3-10-4.6-10.6c0-0.1-0.1-0.1-0.1-0.1
		c12-0.8,21.6-4.1,28.9-7.7h0.1c9.4-4.7,14.6-9.8,15.2-10.5l0,0l0,0l-1.6,3.2l-1.4,2.7L193,231l0,0v0.1l-0.2,1.5l-2.5,17l14.5,43.7
		l11.6,15.7l0,0l0.7,1l1.5,2l2.1,2.7l0,0l2.1,2.8l0,0l0,0C223.1,317.9,223.4,318.5,223.7,319.2z"/>
</g>
<path style="fill:#2C9984;" d="M196.3,224.4c0,0-6,39.3,26.5,93.1c0,0-25.4-12.8-42.3-76.2l9.8-4.1l-9.8-1.9L196.3,224.4z"/>
<path style="fill:#4CDBC4;" d="M294.8,283.6c-7.6,8.9-16.7,16.4-27,22.3c-0.7-3.5-1.4-6.7-2.1-9.4c-1.5-6.4-2.7-10.3-2.7-10.3
	l14.4-32.8c0,0,0-0.1,0.1-0.1l4.6-10.5c0-0.1,0.1-0.1,0.1-0.1C288.1,256,292.1,269.8,294.8,283.6z"/>
<path style="fill:#2C9984;" d="M282.1,242.7c0,0,0,0-0.1,0.1c-0.4,0.7-2.2,4.3-4.6,10.5l-0.1,0.1c-3.5,9.1-8.3,23.8-11.7,43.1
	c-0.6,3.6-1.2,7.5-1.7,11.5c-12.2,6.3-25.9,10.3-40.3,11.2c-2.2,0.1-4.4,0.2-6.6,0.2c-2.2,0-4.4-0.1-6.6-0.2c0.3-0.7,0.6-1.2,1-1.7
	l0,0l3.9-5.2l0.3-0.4l0,0l1.5-2l0.7-1l0,0l11.6-15.7l14.3-43.3l0,0l0.1-0.4l-2.7-18.6l-3.2-6.5l0,0c0.6,0.7,5.8,5.8,15.2,10.5
	C260.4,238.5,270.1,241.9,282.1,242.7z"/>
<path style="fill:#4CDBC4;" d="M237.9,224.4c0,0,6,39.3-26.5,93.1c0,0,25.4-12.8,42.3-76.2l-9.8-4.1l9.8-1.9L237.9,224.4z"/>
<g>
	<path style="fill:#F9B54C;" d="M247.3,181.6c-0.4,4.7-2.1,8.6-3.8,8.6s-2.8-3.8-2.4-8.6c0.4-4.7,2.1-8.6,3.8-8.6
		S247.7,176.9,247.3,181.6z"/>
	<path style="fill:#F9B54C;" d="M186.9,181.6c0.4,4.7,2.1,8.6,3.8,8.6s2.8-3.8,2.4-8.6c-0.4-4.7-2.1-8.6-3.8-8.6
		S186.5,176.9,186.9,181.6z"/>
</g>
<path style="fill:#FFD05B;" d="M238.2,154.7c-1.6-3.4-5.2-5.7-9.1-5.7h-11.8h-11.8c-4,0-7.5,2.2-9.1,5.7c-3.8,8.4-4.6,22.8-4.6,32.7
	c0,6.5,2.5,12.8,7.1,17.7l3.7,3.9c3.4,3.6,7.8,6.3,12.7,7.7l2.1,0.6l2.1-0.6c4.9-1.4,9.3-4,12.7-7.7l3.7-3.9
	c4.6-4.9,7.1-11.2,7.1-17.7C242.8,177.6,242,163.1,238.2,154.7z"/>
<path style="fill:#11110F;" d="M245.8,146.5c-0.4-1.4-1-2.7-1.4-4.1c-0.3-0.9-0.5-1.9-0.9-2.8c-1-1.8-3.2-2.8-5.3-2.6
	s-3.9,1.4-5.4,2.9c0.3-2,0.4-4.1-0.6-5.8c-1.1-2-3.3-3.1-5.5-3.5s-4.5-0.3-6.7-0.5c-2.5-0.2-4.9-0.9-7.4-0.6c-2,0.2-3.9,1.3-5.9,1.8
	c-21,4.8-19.3,29.7-19,36.4c0.1,1.8,0.2,3.6,0.8,5.2c0.7,2.2,2.1,4,3.6,5.8c0.4-1.2,0.3-2.5,0.6-3.8c0.4-1.8,0.6-3.7,1.1-5.5
	c0.5-1.7,2.5-11,3.3-12.8c1.1-2.5,3.2-4.8,5.8-5.4c5-1.3,10.1,3.2,15.2,2.4c1-0.2,1.9-0.5,2.8-0.8c1.1-0.4,2.1-0.7,3.2-1
	c2.4-0.7,5-1.2,7.4-0.5c2.7,0.8,4.8,2.9,6.1,5.3c1.3,2.5,2,5.2,2.6,8c0.3,1.6,0.7,3.3,0.5,5c0,0.1,0,0.2,0,0.4c0.1,1.3,0,2.7,0.2,4
	c0.2,1,0.5,2,0.7,3.1c0.1,0.5,0.2,0.9,0.3,1.4c1.8-3.3,3-6.8,3.7-10.5c0.5-3,0.7-6,0.8-9.1C246.8,154.6,247,150.4,245.8,146.5z"/>
</svg>